<svg width="40" height="40" fill="none" xmlns="http://www.w3.org/2000/svg"><path d="M14.166 4.87a2.5 2.5 0 0 0-2.5 2.5v25.26a2.5 2.5 0 0 0 2.5 2.5h11.667a2.5 2.5 0 0 0 2.5-2.5V7.37a2.5 2.5 0 0 0-2.5-2.5h-.139l-.406.974a1.666 1.666 0 0 1-1.538 1.025h-7.5c-.673 0-1.28-.404-1.54-1.025l-.404-.975h-.14Zm-5.833 2.5a5.833 5.833 0 0 1 5.833-5.834h11.667a5.833 5.833 0 0 1 5.833 5.833v25.26a5.833 5.833 0 0 1-5.833 5.834H14.166a5.833 5.833 0 0 1-5.833-5.833V7.37Z" fill="#FF5A30" fill-rule="evenodd"/></svg>