<svg width="50.483" height="46.174" fill="none" xmlns="http://www.w3.org/2000/svg"><path d="M39.295 1.176C33.126.527 27.579 5.02 26.93 11.187L25.804 21.91a1.408 1.408 0 0 0 1.25 1.547l.468.049-1.176 11.187c-.541 5.141 3.202 9.764 8.344 10.303 5.14.541 9.762-3.201 10.302-8.342l1.177-11.19.466.05a1.406 1.406 0 0 0 1.546-1.252l1.127-10.721c.648-6.17-3.844-11.717-10.013-12.365ZM39 3.973c4.627.486 7.995 4.646 7.509 9.273l-.392 3.73-16.782-1.765.392-3.729c.486-4.627 4.646-7.996 9.273-7.51ZM28.748 20.807l.294-2.797 16.782 1.763-.294 2.797-16.782-1.763Zm13.447 15.552a6.568 6.568 0 0 1-7.212 5.84 6.569 6.569 0 0 1-5.84-7.21l1.175-11.19 13.053 1.373-1.176 11.187Z" fill="#FF5A30"/><path d="m33.412 39.205 3.73.393a1.406 1.406 0 1 0 .293-2.797l-3.729-.393a1.409 1.409 0 0 0-1.546 1.252 1.405 1.405 0 0 0 1.252 1.545ZM11.188 1.176C5.02 1.824.528 7.37 1.176 13.539l1.127 10.723a1.405 1.405 0 0 0 1.546 1.252l.465-.05L5.49 36.653c.541 5.143 5.163 8.885 10.304 8.344 5.142-.539 8.884-5.162 8.344-10.303l-1.176-11.19.466-.048a1.406 1.406 0 0 0 1.252-1.545l-1.127-10.723C22.904 5.02 17.357.527 11.188 1.177ZM4.953 22.57l-.294-2.797 16.782-1.765.294 2.799L4.953 22.57Zm16.388 12.416c.378 3.6-2.242 6.836-5.841 7.213a6.569 6.569 0 0 1-7.212-5.84L7.111 25.17l13.054-1.37 1.176 11.187Zm-.194-19.775L4.366 16.975l-.392-3.729c-.487-4.627 2.882-8.787 7.51-9.273 4.626-.487 8.787 2.882 9.273 7.51l.392 3.728Z" fill="#FF5A30"/><path d="m13.342 39.6 3.73-.393a1.406 1.406 0 1 0-.295-2.797l-3.73.393a1.406 1.406 0 0 0 .294 2.797Z" fill="#FF5A30"/></svg>