<svg width="40" height="40" fill="none" xmlns="http://www.w3.org/2000/svg"><path d="M36.54 17.611a12.925 12.925 0 0 1-1.635 4.645c.063.356.095.716.095 1.077 0 1.255-.364 2.456-1.037 3.547-.337.544-.423 1.183-.456 1.604-.038.483-.026 1.012.009 1.52.039.57.109 1.168.19 1.732-.651-.19-1.356-.38-2.03-.532a14.41 14.41 0 0 0-1.65-.287c-.454-.047-1.107-.083-1.692.105a13.57 13.57 0 0 1-4.168.644c-1.763 0-3.382-.313-4.802-.856-.341.015-.685.023-1.031.023-2.008 0-3.94-.264-5.748-.752C15.213 33.121 19.545 35 24.166 35c1.805 0 3.537-.277 5.134-.786l.015-.001c.041 0 .155-.003.368.02.334.034.764.11 1.26.223.987.223 2.096.55 2.961.825 1.833.582 3.61-1.017 3.282-2.879-.14-.8-.287-1.778-.344-2.625a7.3 7.3 0 0 1-.012-1.03c.008-.107.019-.174.026-.209.937-1.554 1.477-3.322 1.477-5.205 0-2.122-.66-4.06-1.794-5.722Z" fill="#FF5A30" fill-rule="evenodd"/><path d="M9.328 9.497c-2.247 1.718-3.495 3.973-3.495 6.336 0 1.179.307 2.313.882 3.37.22.4.281.816.304 1.096.024.306.011.62-.015.915-.053.589-.18 1.256-.333 1.913-.178.77-.406 1.589-.639 2.36.881-.321 1.843-.65 2.755-.915a17.762 17.762 0 0 1 2.145-.507c.57-.09 1.4-.178 2.112.068 1.6.553 3.392.867 5.289.867 3.578 0 6.757-1.111 9.005-2.831 2.246-1.718 3.495-3.973 3.495-6.336 0-2.363-1.249-4.618-3.495-6.336-2.248-1.72-5.427-2.831-9.005-2.831-3.58 0-6.757 1.111-9.005 2.831ZM7.303 6.85c2.879-2.202 6.784-3.516 11.03-3.516 4.245 0 8.15 1.314 11.03 3.516 2.88 2.203 4.803 5.364 4.803 8.984s-1.923 6.781-4.804 8.984c-2.879 2.202-6.784 3.516-11.029 3.516-2.24 0-4.377-.365-6.318-1.03-.002.007-.16-.01-.563.054a15.03 15.03 0 0 0-1.731.415c-1.342.391-2.85.946-3.998 1.392-1.99.774-4.016-1.136-3.346-3.17.355-1.08.774-2.443 1.047-3.62.138-.593.227-1.092.26-1.46.012-.129.015-.222.014-.285A10.299 10.299 0 0 1 2.5 15.833c0-3.62 1.923-6.781 4.804-8.984Zm-3.61 13.69.001.013a.178.178 0 0 0-.002-.014Z" fill="#FF5A30" fill-rule="evenodd"/></svg>