<svg width="48" height="48" fill="none" xmlns="http://www.w3.org/2000/svg"><defs><clipPath id="a"><path fill="#fff" fill-opacity="0" d="M0 0h48v48H0z"/></clipPath></defs><g clip-path="url(#a)" fill="#FF5A30"><path d="M7 44H1.5A1.5 1.5 0 0 1 0 42.5v-17A1.5 1.5 0 0 1 1.5 24c7.012 0 10.276 2.434 10.41 2.537a1.5 1.5 0 0 1 .538 1.584l-4 14.774A1.499 1.499 0 0 1 7 44Zm-4-3h2.852l3.396-12.543c-1.046-.492-3.09-1.229-6.248-1.412V41Z"/><path d="M26 48c-4.518 0-12.846-3.457-19.038-6.361a1.501 1.501 0 0 1 1.274-2.72C16.476 42.786 22.952 45 26 45c4.057 0 13.265-4.383 18.09-6.91-.556-.319-1.384-.59-2.59-.59-1.76 0-3.93.72-6.027 1.416-.683.227-1.363.451-2.036.658-1.485.457-3.237.926-4.939.926-4.214 0-9.778-2.004-10.012-2.09a1.5 1.5 0 1 1 1.024-2.82c.052.02 5.304 1.91 8.988 1.91 1.313 0 2.858-.424 4.059-.795.651-.2 1.31-.418 1.967-.635 2.325-.771 4.726-1.57 6.972-1.57 4.958 0 6.336 3.303 6.393 3.443a1.503 1.503 0 0 1-.668 1.872C46.62 40.148 32.315 48 26 48Z"/><path d="M33 39.68a1.5 1.5 0 0 1-1.5-1.5v-.9a2.51 2.51 0 0 0-2-2.45L10.237 30.89a1.5 1.5 0 0 1 .603-2.938l19.262 3.94a5.522 5.522 0 0 1 4.398 5.39v.9A1.5 1.5 0 0 1 33 39.68ZM36 28.002c-.2 0-.398-.041-.586-.121C34.948 27.684 24 22.918 24 13.109V5.072c0-.64.408-1.21 1.018-1.42L35.518.08c.312-.107.652-.107.964 0l10.5 3.572c.61.207 1.018.778 1.018 1.42v8.037c0 9.809-10.948 14.577-11.414 14.774-.188.078-.386.119-.586.119ZM27 6.146v6.963c0 6.696 6.91 10.682 8.998 11.733C38.082 23.785 45 19.779 45 13.109V6.146l-9-3.06-9 3.06Z"/><path d="M35.499 19a1.5 1.5 0 0 1-1.06-.44l-4-4a1.502 1.502 0 0 1 2.123-2.123l2.778 2.78L40.3 8.6a1.5 1.5 0 1 1 2.398 1.8l-6 8a1.49 1.49 0 0 1-1.095.596C35.57 19 35.535 19 35.5 19Z"/></g></svg>