<svg width="16" height="16" fill="none" xmlns="http://www.w3.org/2000/svg"><path d="M7.333 1.334c-1.698 0-3.26.525-4.412 1.406C1.769 3.621 1 4.887 1 6.334c0 .684.173 1.332.48 1.918 0 .025-.001.062-.006.113a4.703 4.703 0 0 1-.104.586c-.11.47-.277 1.016-.419 1.447-.268.815.542 1.579 1.338 1.268.459-.178 1.063-.4 1.6-.557.27-.078.507-.136.692-.166.123-.02.19-.02.214-.02l.01-.001a7.819 7.819 0 0 0 2.528.412c1.698 0 3.26-.525 4.412-1.406 1.153-.881 1.921-2.147 1.921-3.594s-.768-2.713-1.92-3.594c-1.152-.88-2.715-1.406-4.413-1.406Zm-5 5c0-.945.499-1.848 1.398-2.535.899-.688 2.17-1.131 3.602-1.131s2.703.443 3.602 1.13c.899.688 1.398 1.59 1.398 2.536 0 .945-.499 1.848-1.398 2.535C10.036 9.557 8.765 10 7.333 10a6.504 6.504 0 0 1-2.115-.346c-.285-.1-.616-.062-.845-.027a7.015 7.015 0 0 0-.858.203c-.365.106-.75.236-1.102.365.093-.308.184-.636.256-.943.06-.264.111-.53.133-.766.01-.117.015-.244.006-.365a1.088 1.088 0 0 0-.122-.44 2.803 2.803 0 0 1-.353-1.347Zm11.629 2.57a5.185 5.185 0 0 0 .653-1.86c.454.665.718 1.44.718 2.29 0 .754-.216 1.46-.59 2.082a.844.844 0 0 0-.012.084c-.007.102-.006.242.005.412.024.338.082.73.139 1.05.13.745-.58 1.384-1.313 1.151-.346-.11-.79-.24-1.185-.33a4.438 4.438 0 0 0-.504-.09c-.085-.008-.13-.008-.147-.008h-.006A6.716 6.716 0 0 1 9.666 14c-1.848 0-3.581-.75-4.632-1.967a8.817 8.817 0 0 0 2.711.291 5.339 5.339 0 0 0 1.921.344c.594 0 1.156-.092 1.668-.258.233-.076.495-.06.676-.043.208.022.436.065.66.115.27.061.552.137.811.213a9.757 9.757 0 0 1-.075-.693 4.377 4.377 0 0 1-.004-.607c.014-.168.048-.424.183-.643.27-.436.415-.916.415-1.418a2.44 2.44 0 0 0-.038-.43Z" fill="#787A80" fill-rule="evenodd"/></svg>