<svg width="148" height="148" fill="none" xmlns="http://www.w3.org/2000/svg"><defs><clipPath id="a"><path fill="#fff" fill-opacity="0" d="M0 0h148v148H0z"/></clipPath></defs><g clip-path="url(#a)"><circle cx="74" cy="74" r="71" stroke="#F89828" stroke-width="6" opacity=".3"/><path d="M142 74c0 37.555-30.444 68-68 68S6 111.555 6 74c0-20.775 9.316-39.375 24-51.848L26.209 17.5C10.178 31.074 0 51.348 0 74c0 40.869 33.13 74 74 74 40.869 0 74-33.131 74-74 0-40.87-33.131-74-74-74v6c37.556 0 68 30.445 68 68Z" fill="#F89828" fill-rule="evenodd"/><path d="M49.386 74.094q.734 0 1.531-.14.805-.15 1.188-.4v-.288q0-.133.015-.258.016-.125.016-.227-.031-1.148-.195-2.156-.157-1.008-.54-1.758-.382-.758-1.038-1.187-.657-.43-1.618-.43-.765 0-1.343.32t-.93.836q-.352.508-.531 1.117-.172.602-.172 1.18 0 1.727.844 2.563.851.828 2.773.828Zm2.336 3.11q-.672.32-1.492.46-.813.14-1.39.14-2.079 0-3.556-.492-1.468-.5-2.414-1.406-.945-.914-1.39-2.195-.446-1.281-.446-2.813 0-1.28.43-2.625.43-1.343 1.36-2.445.93-1.11 2.351-1.828 1.422-.719 3.438-.719 4.132 0 6.226 2.547 2.094 2.54 2.094 7.305 0 3.14-.813 5.539-.812 2.398-2.53 4.031-1.712 1.633-4.368 2.484-2.656.844-6.305.876-.031-1.024-.093-1.985-.063-.96-.125-1.984 1.82-.031 3.289-.266 1.476-.242 2.593-.805 1.125-.562 1.907-1.484.78-.93 1.234-2.336Zm23.55 2.616q0 1.446-.5 2.649-.491 1.195-1.483 2.094-.993.89-2.485 1.39-1.484.492-3.437.492-2.243 0-3.727-.617-1.484-.625-2.398-1.555-.914-.93-1.297-2.03-.383-1.11-.383-2.032 0-.961.25-1.758.258-.805.703-1.46.453-.657 1.008-1.196.562-.547 1.203-1.031-1.375-1.118-2.031-2.204-.656-1.093-.656-2.789 0-1.28.523-2.46.531-1.188 1.492-2.063.961-.883 2.32-1.406 1.36-.532 3.024-.532 1.953 0 3.344.563 1.39.555 2.289 1.422.898.86 1.297 1.937.398 1.07.398 2.125 0 1.54-.82 2.868-.813 1.328-2.024 2.093 1.82 1.188 2.602 2.485.789 1.289.789 3.015Zm-11.07.196q0 .382.172.851.18.461.563.844.383.383.992.64.61.258 1.469.258 1.664 0 2.43-.796.773-.805.773-1.797 0-.735-.336-1.313t-.914-1.008q-.578-.43-1.36-.765-.78-.336-1.679-.625-.898.672-1.508 1.57-.601.89-.601 2.14Zm5.915-10.532q0-.351-.14-.75-.142-.398-.478-.75-.335-.351-.851-.593-.516-.243-1.25-.243-.703 0-1.219.227-.508.227-.844.594-.335.367-.5.789-.156.414-.156.797 0 1.023.75 1.922.758.89 2.578 1.53 1.024-.64 1.563-1.468.547-.836.547-2.055Zm18.816.04q0 3.007-1.539 4.609-1.531 1.594-4.125 1.594-2.586 0-4.125-1.594-1.539-1.602-1.539-4.61 0-3.007 1.54-4.609 1.538-1.602 4.124-1.602 2.594 0 4.125 1.602 1.54 1.602 1.54 4.61Zm-3.617 0q0-1.633-.578-2.368-.57-.742-1.469-.742-.922 0-1.484.742-.563.735-.563 2.367 0 1.625.563 2.383.562.75 1.484.75.899 0 1.469-.75.578-.758.578-2.383Zm9.86-5.704h4.445L87.113 86h-4.445l12.507-22.18Zm9.57 16.485q0 3.007-1.539 4.61-1.532 1.6-4.125 1.6-2.594 0-4.133-1.6-1.531-1.603-1.531-4.61 0-3.008 1.53-4.61 1.54-1.601 4.134-1.601 2.593 0 4.125 1.601 1.539 1.602 1.539 4.61Zm-3.617 0q0-1.633-.579-2.368-.578-.734-1.468-.734-.93 0-1.492.734-.555.735-.555 2.368 0 1.632.555 2.382.562.75 1.492.75.89 0 1.468-.75.579-.75.579-2.382Z" fill="#1E212C" fill-rule="evenodd"/></g></svg>