<svg width="16" height="16" fill="none" xmlns="http://www.w3.org/2000/svg"><path d="M7.999 13.271C4.934 11.525 3.224 9.79 2.396 8.284c-.846-1.54-.772-2.84-.302-3.76.965-1.894 3.71-2.5 5.383-.384l.522.662.523-.662c1.673-2.116 4.418-1.51 5.383.384.47.92.544 2.22-.303 3.76-.827 1.506-2.537 3.242-5.603 4.989Zm0-10.535C5.646.502 2.176 1.426.905 3.918.208 5.285.2 7.053 1.228 8.926c1.02 1.855 3.051 3.816 6.449 5.693l.322.178.322-.178c3.398-1.877 5.431-3.838 6.45-5.693 1.029-1.873 1.019-3.64.323-5.008-1.27-2.492-4.742-3.416-7.095-1.182Z" fill="#FF5A30" fill-rule="evenodd"/></svg>