<svg width="24" height="24" fill="none" xmlns="http://www.w3.org/2000/svg"><path d="M22 11.742c0 5.381-4.395 9.742-9.818 9.742a9.842 9.842 0 0 1-4.746-1.21L2 22l1.772-5.227a9.637 9.637 0 0 1-1.409-5.03C2.363 6.36 6.76 2 12.182 2 17.605 2 22 6.361 22 11.742Zm-9.818-8.191c-4.552 0-8.255 3.676-8.255 8.191 0 1.793.585 3.453 1.573 4.803l-1.032 3.04 3.173-1.007a8.25 8.25 0 0 0 4.54 1.356c4.552 0 8.255-3.674 8.255-8.192 0-4.515-3.703-8.191-8.254-8.191Zm4.958 10.435c-.06-.1-.221-.16-.461-.279-.241-.12-1.425-.697-1.645-.775-.22-.08-.382-.122-.542.119-.16.238-.62.775-.762.935-.14.16-.28.18-.522.06-.24-.118-1.016-.372-1.935-1.185-.715-.633-1.198-1.414-1.338-1.654-.141-.238-.015-.367.105-.486.108-.108.241-.28.361-.418.12-.139.16-.239.24-.399.082-.16.04-.299-.02-.418s-.54-1.295-.742-1.773c-.2-.479-.4-.399-.541-.399-.14 0-.3-.02-.461-.02a.891.891 0 0 0-.643.3c-.22.238-.841.816-.841 1.992 0 1.174.862 2.31.982 2.469.12.16 1.665 2.648 4.111 3.605 2.448.955 2.448.637 2.889.598.44-.041 1.423-.578 1.625-1.137.2-.556.2-1.035.14-1.135Z" fill="#FFF" opacity=".6"/></svg>