<svg width="142" height="24" fill="none" xmlns="http://www.w3.org/2000/svg"><defs><clipPath id="a"><path fill="#fff" fill-opacity="0" d="M0 0h142v24H0z"/></clipPath></defs><g clip-path="url(#a)" fill-rule="evenodd"><path d="M0 12.11C0 5.454 3.604 1.417 9.503 1.417c4.478 0 8.083 2.727 8.738 6.764.11.435-.218.763-.655.763h-2.84c-.327 0-.546-.218-.655-.545-.546-2.074-2.294-3.382-4.588-3.382-3.168 0-5.134 2.728-5.134 7.091 0 4.364 1.966 7.09 5.243 7.09 2.294 0 3.933-1.199 4.588-3.162.11-.328.327-.547.655-.547h2.84c.437 0 .765.438.656.764-.656 3.928-4.15 6.545-8.739 6.545C3.604 22.799 0 18.654 0 12.109Zm86.292 9.382V6c0-.326-.218-.545-.546-.545H80.94c-.437 0-.874-.328-.874-.873V2.729c0-.438.328-.874.874-.874h14.856c.436 0 .873.327.873.874v1.853c0 .438-.327.873-.873.873h-4.807c-.327 0-.546.219-.546.545v15.6a.746.746 0 0 1-.764.763h-2.73c-.329-.107-.657-.435-.657-.87Zm-62.917.762h3.168c.327 0 .655-.217.546-.436v-6.435c0-.328.219-.547.546-.547h2.512c.328 0 .656.11.765.437l3.168 6.545a.599.599 0 0 0 .546.328h3.605c.328 0 .655-.437.436-.763l-3.386-6.438c-.218-.326-.11-.873.328-1.09 1.857-1.091 2.95-3.164 2.95-5.455 0-3.927-2.732-6.437-7.21-6.437h-7.646c-.437 0-.874.437-.874.873v18.873c0 .328.219.545.546.545Zm32.879 0H44.238a.746.746 0 0 1-.764-.764V2.727c0-.436.328-.764.764-.764h12.016c.436 0 .765.328.765.764V4.8a.747.747 0 0 1-.765.763H48.28c-.328 0-.547.217-.547.545v3.71c0 .327.22.544.547.544h7.428c.437 0 .764.328.764.764v1.855a.746.746 0 0 1-.764.764H48.28c-.328 0-.547.217-.547.545v4.145c0 .328.22.546.547.546h7.974c.436 0 .765.327.765.764v2.072c0 .11-.329.436-.765.436Zm10.704-4.908h6.227c.218 0 .546.218.546.435l1.202 4.037c.108.22.327.436.655.436h3.167c.437 0 .764-.436.656-.871L72.856 2.4c-.108-.218-.327-.437-.655-.437h-4.04c-.329 0-.547.219-.656.437L60.95 21.383c-.11.435.218.87.655.87h2.84c.327 0 .546-.107.656-.435l1.2-4.037c.11-.216.329-.435.656-.435Zm34.408 4.908h12.016c.436 0 .764-.326.764-.436v-2.072a.746.746 0 0 0-.764-.764h-7.975c-.327 0-.546-.218-.546-.546V14.29c0-.328.219-.545.546-.545h7.428a.747.747 0 0 0 .765-.764v-1.855a.747.747 0 0 0-.765-.764h-7.428c-.327 0-.546-.216-.546-.545V6.11c0-.328.219-.545.546-.545h7.975a.747.747 0 0 0 .764-.763V2.727a.747.747 0 0 0-.764-.764h-12.016a.746.746 0 0 0-.764.764V21.49c0 .438.327.764.764.764ZM27.744 11.672c-.327 0-.546-.217-.546-.545h.11V5.891c0-.327.217-.545.546-.545h3.168c2.075 0 3.385 1.199 3.385 3.164 0 1.963-1.2 3.162-3.385 3.162h-3.278Zm44.567 2.51h-4.479c-.218 0-.327-.22-.218-.436l2.403-7.637h.218l2.404 7.637c0 .217-.11.436-.328.436Z" fill="#FFF"/><path d="m121.792 1.746 6.772 8.836c.765.873.765 2.182 0 2.838l-6.772 8.836a2.161 2.161 0 0 1-1.529.654 2.165 2.165 0 0 1-1.53-.654 2.322 2.322 0 0 1 0-3.055L124.086 12l-5.353-7.2a2.322 2.322 0 0 1 0-3.054 2.165 2.165 0 0 1 1.53-.654 2.16 2.16 0 0 1 1.529.654Zm16.432 0-6.773 8.836c-.764.873-.764 2.182 0 2.838l6.773 8.836c.436.435.982.654 1.529.654.546 0 1.092-.219 1.529-.654a2.32 2.32 0 0 0 0-3.055L135.93 12l5.352-7.2a2.32 2.32 0 0 0 0-3.054 2.16 2.16 0 0 0-1.529-.654c-.547 0-1.093.219-1.529.654Z" fill="#FF5A30"/></g></svg>