<svg width="130" height="22" fill="none" xmlns="http://www.w3.org/2000/svg"><defs><clipPath id="a"><path fill="#fff" fill-opacity="0" d="M0 0h130v22H0z"/></clipPath></defs><g clip-path="url(#a)" fill-rule="evenodd"><path d="M0 11.1C0 5 3.3 1.3 8.7 1.3c4.1 0 7.4 2.5 8 6.2.1.4-.2.7-.6.7h-2.6c-.3 0-.5-.2-.6-.5-.5-1.9-2.1-3.1-4.2-3.1C5.8 4.6 4 7.1 4 11.1s1.8 6.5 4.8 6.5c2.1 0 3.6-1.1 4.2-2.9.1-.3.3-.5.6-.5h2.6c.4 0 .7.4.6.7-.6 3.6-3.8 6-8 6-5.5 0-8.8-3.8-8.8-9.8Zm79 8.6V5.5c0-.3-.2-.5-.5-.5h-4.4c-.4 0-.8-.3-.8-.8V2.5c0-.4.3-.8.8-.8h13.6c.4 0 .8.3.8.8v1.7c0 .4-.3.8-.8.8h-4.4c-.3 0-.5.2-.5.5v14.3c0 .4-.3.7-.7.7h-2.5c-.3-.1-.6-.4-.6-.8Zm-57.6.7h2.9c.3 0 .6-.2.5-.4v-5.9c0-.3.2-.5.5-.5h2.3c.3 0 .6.1.7.4l2.9 6c.1.2.3.3.5.3H35c.3 0 .6-.4.4-.7l-3.1-5.9c-.2-.3-.1-.8.3-1 1.7-1 2.7-2.9 2.7-5 0-3.6-2.5-5.9-6.6-5.9h-7c-.4 0-.8.4-.8.8v17.3c0 .3.2.5.5.5Zm30.1 0h-11c-.4 0-.7-.3-.7-.7V2.5c0-.4.3-.7.7-.7h11c.4 0 .7.3.7.7v1.9c0 .4-.3.7-.7.7h-7.3c-.3 0-.5.2-.5.5V9c0 .3.2.5.5.5H51c.4 0 .7.3.7.7v1.7c0 .4-.3.7-.7.7h-6.8c-.3 0-.5.2-.5.5v3.8c0 .3.2.5.5.5h7.3c.4 0 .7.3.7.7V20c0 .1-.3.4-.7.4Zm9.8-4.5H67c.2 0 .5.2.5.4l1.1 3.7c.1.2.3.4.6.4h2.9c.4 0 .7-.4.6-.8l-6-17.4c-.1-.2-.3-.4-.6-.4h-3.7c-.3 0-.5.2-.6.4l-6 17.4c-.1.4.2.8.6.8H59c.3 0 .5-.1.6-.4l1.1-3.7c.1-.2.3-.4.6-.4Zm31.5 4.5h11c.4 0 .7-.3.7-.4v-1.9c0-.4-.3-.7-.7-.7h-7.3c-.3 0-.5-.2-.5-.5v-3.8c0-.3.2-.5.5-.5h6.8c.4 0 .7-.3.7-.7v-1.7c0-.4-.3-.7-.7-.7h-6.8c-.3 0-.5-.2-.5-.5V5.6c0-.3.2-.5.5-.5h7.3c.4 0 .7-.3.7-.7V2.5c0-.4-.3-.7-.7-.7h-11c-.4 0-.7.3-.7.7v17.2c0 .4.3.7.7.7Zm-67.4-9.7c-.3 0-.5-.2-.5-.5h.1V5.4c0-.3.2-.5.5-.5h2.9c1.9 0 3.1 1.1 3.1 2.9 0 1.8-1.1 2.9-3.1 2.9h-3ZM66.2 13h-4.1c-.2 0-.3-.2-.2-.4l2.2-7h.2l2.2 7c0 .2-.1.4-.3.4Z" fill="#1E212C"/><path d="m111.5 1.6 6.2 8.1c.699.8.699 2 0 2.6l-6.2 8.1c-.4.4-.9.6-1.4.6-.5 0-1-.2-1.4-.6-.7-.8-.7-2 0-2.8l4.9-6.6-4.9-6.6c-.7-.8-.7-2 0-2.8.4-.4.9-.6 1.4-.6.5 0 1 .2 1.4.6Zm15.043 0-6.2 8.1c-.7.8-.7 2 0 2.6l6.2 8.1c.399.4.899.6 1.399.6s1-.2 1.401-.6c.7-.8.7-2 0-2.8l-4.901-6.6 4.901-6.6c.7-.8.7-2 0-2.8a1.98 1.98 0 0 0-1.401-.6c-.5 0-1 .2-1.399.6Z" fill="#FF5A30"/></g></svg>