<svg width="84" height="48" fill="none" xmlns="http://www.w3.org/2000/svg"><circle cx="60" cy="24" r="24" fill="#FF5A30"/><path d="M62.793 18.793a1 1 0 0 1 1.414 0l4.5 4.5a1 1 0 0 1 0 1.414l-4.5 4.5a1 1 0 1 1-1.414-1.414L65.586 25H52a1 1 0 1 1 0-2h13.586l-2.793-2.793a1 1 0 0 1 0-1.414Z" fill="#FFF" fill-rule="evenodd"/><path d="M9.207 29.207a1 1 0 0 1-1.414 0l-4.5-4.5a1 1 0 0 1 0-1.414l4.5-4.5a1 1 0 1 1 1.414 1.414L6.414 23H20a1 1 0 1 1 0 2H6.414l2.793 2.793a1 1 0 0 1 0 1.414Z" fill="#424551" fill-rule="evenodd"/></svg>