<svg width="52" height="52" fill="none" xmlns="http://www.w3.org/2000/svg"><defs><clipPath id="a"><path fill="#fff" fill-opacity="0" d="M0 0h52v52H0z"/></clipPath></defs><g clip-path="url(#a)"><path d="M42.86 4.57c0-2.52-2.051-4.57-4.57-4.57H7.82C5.3 0 3.25 2.05 3.25 4.57v9.14c0 2.52 2.05 4.571 4.57 4.571h30.47c2.519 0 4.57-2.05 4.57-4.57v-1.524h1.523c.84 0 1.523.684 1.523 1.524v6.094c0 .84-.683 1.523-1.523 1.523H26.102c-2.52 0-4.57 2.05-4.57 4.57v4.57h-1.524c-.842 0-1.524.682-1.524 1.524v6.012l-1.523 6.191C15.97 48.158 18.964 52 23.055 52c4.093 0 7.083-3.848 6.095-7.799l-1.525-6.197v-6.012c0-.842-.682-1.523-1.523-1.523h-1.524v-4.57c0-.84.684-1.524 1.524-1.524h18.28c2.52 0 4.571-2.05 4.571-4.57V13.71c0-2.52-2.05-4.57-4.57-4.57h-1.524V4.57ZM24.577 33.516v3.148h-3.047v-3.148h3.047Zm-1.523 15.437a3.234 3.234 0 0 1-3.137-4.023l1.284-5.22h3.705l1.285 5.224a3.234 3.234 0 0 1-3.137 4.02ZM7.82 3.047h30.47c.839 0 1.523.683 1.523 1.523v1.524h-4.57c-1.481 0-3.375.554-5.567 1.197-2.961.867-6.317 1.85-9.668 1.85-3.267 0-5.57-.955-7.602-1.795-1.554-.645-3.02-1.252-4.586-1.252H6.297V4.57c0-.84.683-1.523 1.523-1.523ZM39.812 13.71c0 .84-.683 1.523-1.523 1.523H7.82c-.84 0-1.523-.683-1.523-1.523V9.14H7.82c.96 0 2.045.449 3.42 1.02 2.18.902 4.895 2.027 8.768 2.027 3.788 0 7.523-1.094 10.524-1.973 1.886-.553 3.667-1.074 4.71-1.074h4.57v4.57Z" fill="#FF5A30"/></g></svg>