<svg width="52" height="52" fill="none" xmlns="http://www.w3.org/2000/svg"><defs><clipPath id="a"><path fill="#fff" fill-opacity="0" d="M0 0h52v52H0z"/></clipPath></defs><g clip-path="url(#a)" fill="#FF5A30"><path d="M45.906 3.148a6.098 6.098 0 0 0-5.276 3.047H1.523C.682 6.195 0 6.877 0 7.72v39.61c0 .84.682 1.523 1.523 1.523h44.383A6.101 6.101 0 0 0 52 42.758V9.242a6.101 6.101 0 0 0-6.094-6.094Zm0 42.657H3.046V9.242h36.767v33.516a1.523 1.523 0 1 0 3.046 0 3.05 3.05 0 0 1 3.047-3.047 3.05 3.05 0 0 1 3.047 3.047 3.05 3.05 0 0 1-3.047 3.047Zm3.047-8.323a6.06 6.06 0 0 0-3.047-.818 6.06 6.06 0 0 0-3.047.818V9.242a3.05 3.05 0 0 1 3.047-3.047 3.05 3.05 0 0 1 3.047 3.047v28.24Z"/><path d="M35.14 12.29H7.72c-.842 0-1.524.68-1.524 1.523v27.421c0 .842.682 1.524 1.524 1.524h15.234a1.525 1.525 0 0 0 1.524-1.524v-3.047a4.577 4.577 0 0 1 3.046-4.308v7.355c0 .842.682 1.524 1.524 1.524h6.094c.841 0 1.523-.682 1.523-1.524V13.812c0-.841-.682-1.523-1.523-1.523Zm-1.523 27.42H30.57v-7.616c0-.842-.681-1.524-1.523-1.524-4.2 0-7.617 3.418-7.617 7.617v1.524H9.242v-9.14h6.094v4.57a1.523 1.523 0 1 0 3.047 0v-6.094c0-.842-.682-1.524-1.524-1.524H9.242V15.336h9.14v6.094h-4.57a1.523 1.523 0 1 0 0 3.047H26a1.523 1.523 0 1 0 0-3.047h-4.57v-6.094h12.187V39.71Z"/></g></svg>