<svg width="52" height="52" fill="none" xmlns="http://www.w3.org/2000/svg"><defs><clipPath id="a"><path fill="#fff" fill-opacity="0" d="M0 0h52v52H0z"/></clipPath></defs><g clip-path="url(#a)"><path d="M50.477 27.523c.841 0 1.523-.681 1.523-1.523V14.625c0-.842-.682-1.523-1.523-1.523H27.523V3.25c0-.842-.681-1.523-1.523-1.523H9.75c-.842 0-1.523.681-1.523 1.523v9.852H1.523c-.841 0-1.523.681-1.523 1.523V26c0 .842.682 1.523 1.523 1.523h6.704v8.329H1.523c-.841 0-1.523.681-1.523 1.523V48.75c0 .842.682 1.523 1.523 1.523h48.954c.841 0 1.523-.681 1.523-1.523V37.375c0-.842-.682-1.523-1.523-1.523h-6.704v-8.329h6.704Zm-1.524-3.046H35.648v-8.329h13.305v8.329Zm-16.351 0H19.398v-8.329h13.204v8.329ZM11.273 4.773h13.204v8.329H11.273V4.773ZM3.047 24.477v-8.329h13.305v8.329H3.047Zm8.226 3.046h13.204v8.329H11.273v-8.329ZM3.047 38.898h13.305v8.329H3.047v-8.329Zm16.351 0h13.204v8.329H19.398v-8.329Zm29.555 0v8.329H35.648v-8.329h13.305Zm-8.226-3.046H27.523v-8.329h13.204v8.329Z" fill="#FF5A30"/></g></svg>