<svg width="52" height="52" fill="none" xmlns="http://www.w3.org/2000/svg"><path d="M49.25 30.95a4.57 4.57 0 0 0 .286-5.005l-6.09-10.65c-1.054-1.826-3.276-2.658-5.258-2.129a4.579 4.579 0 0 0-2.175-4.953L25.458 2.119a4.576 4.576 0 0 0-4.695.076A4.573 4.573 0 0 0 16.859 0H4.57C2.05 0 0 2.05 0 4.57v42.86C0 49.95 2.05 52 4.57 52h42.86c2.52 0 4.57-2.05 4.57-4.57V35.14a4.576 4.576 0 0 0-2.75-4.19ZM18.383 47.43c0 .84-.684 1.523-1.524 1.523H4.57c-.84 0-1.523-.684-1.523-1.523V33.617h15.336V47.43Zm0-16.86H3.047V18.281h15.336v12.29Zm0-15.336H3.047V4.57c0-.84.683-1.523 1.523-1.523h12.29c.84 0 1.523.683 1.523 1.523v10.664Zm3.047-9.183.424-.735a1.525 1.525 0 0 1 2.08-.558l10.555 6.094c.728.42.978 1.353.557 2.083l-1.76 3.06a1.52 1.52 0 0 0-.118.204L21.43 36.603V6.051Zm0 36.662 14.24-24.754 2.945-1.701c.747-.432 1.77-.17 2.189.555l6.09 10.65a1.53 1.53 0 0 1-.561 2.092L21.43 43.97v-1.258Zm27.523 4.717c0 .84-.684 1.523-1.523 1.523H21.168c.162-.459.253-.95.26-1.46l23.967-13.876h2.035c.84 0 1.523.684 1.523 1.524V47.43Z" fill="#FFF"/></svg>