<svg width="48" height="48" fill="none" xmlns="http://www.w3.org/2000/svg"><defs><clipPath id="a"><path fill="#fff" fill-opacity="0" d="M0 0h48v48H0z"/></clipPath></defs><g clip-path="url(#a)" fill="#FF5A30"><path d="M44.017 29.719a4.21 4.21 0 0 0 1.077-2.813 4.224 4.224 0 0 0-4.219-4.218h-8.188c.811-2.461 1.157-5.727 1.157-7.125v-1.407a5.632 5.632 0 0 0-5.625-5.625h-1.407c-.644 0-1.207.44-1.364 1.065l-.765 3.064c-1.074 4.293-4.482 9.027-8.008 9.889a4.225 4.225 0 0 0-3.925-2.674H4.312c-.776 0-1.406.63-1.406 1.406v25.313c0 .775.63 1.406 1.406 1.406h8.438a4.226 4.226 0 0 0 3.809-2.404l4.83 1.61a15.43 15.43 0 0 0 4.893.794h11.78a4.224 4.224 0 0 0 3.923-5.773 4.226 4.226 0 0 0 3.109-4.07 4.209 4.209 0 0 0-1.077-2.813 4.21 4.21 0 0 0 0-5.625ZM14.157 43.78c0 .776-.632 1.407-1.407 1.407H5.719v-22.5h7.031c.775 0 1.406.63 1.406 1.406V43.78Zm23.905-12.656h2.813c.775 0 1.406.63 1.406 1.406 0 .776-.63 1.407-1.406 1.407h-2.813a1.407 1.407 0 0 0 0 2.812h2.813c.775 0 1.406.63 1.406 1.406 0 .776-.63 1.407-1.406 1.407h-2.813a1.407 1.407 0 0 0 0 2.812c.776 0 1.407.63 1.407 1.406 0 .776-.631 1.407-1.407 1.407h-11.78c-1.363 0-2.71-.22-4.004-.65l-5.31-1.77v-17.4c2.207-.42 4.366-1.817 6.315-4.104 1.902-2.233 3.447-5.194 4.127-7.92l.5-2h.309a2.816 2.816 0 0 1 2.812 2.812v1.406c0 1.887-.59 5.508-1.346 7.126h-2.872a1.407 1.407 0 0 0 0 2.812h14.062c.775 0 1.406.63 1.406 1.406 0 .776-.63 1.407-1.406 1.407h-2.813a1.407 1.407 0 0 0 0 2.812Z"/><path d="M11.344 40.969a1.406 1.406 0 1 1-2.812 0 1.406 1.406 0 0 1 2.812 0Z" fill-rule="evenodd"/><path d="M29.625 0c-.776 0-1.406.629-1.406 1.406v2.907a1.406 1.406 0 1 0 2.812 0V1.405C31.031.63 30.401 0 29.625 0ZM23.66 6.201l-1.99-1.988A1.406 1.406 0 0 0 19.682 6.2L21.67 8.19a1.406 1.406 0 1 0 1.99-1.988ZM39.57 4.213a1.407 1.407 0 0 0-1.99 0L35.592 6.2c-.55.549-.55 1.44 0 1.988.549.55 1.44.551 1.988 0l1.99-1.988a1.406 1.406 0 0 0 0-1.988Z"/></g></svg>