<svg width="20" height="20" fill="none" xmlns="http://www.w3.org/2000/svg"><defs><clipPath id="a"><path fill="#fff" fill-opacity="0" d="M0 0h20v20H0z"/></clipPath></defs><g clip-path="url(#a)"><path d="M16.084 4.416a.804.804 0 0 1 1.166 0 .804.804 0 0 1 0 1.166L5.584 17.25a.808.808 0 0 1-1.167 0 .808.808 0 0 1 0-1.168l2.75-2.75h-.5c-.917 0-1.667-.75-1.667-1.666V8.332c0-.916.75-1.666 1.667-1.666h1.917c.416 0 .75-.166 1.083-.334L12 4.416c.5-.416 1.334 0 1.334.666v2.084l2.75-2.75Zm-2.75 10.5c0 .75-.75 1.084-1.334.666l-1.75-1.332 3.084-3.084v3.75Z" fill="#FFF" fill-rule="evenodd"/></g></svg>